<?xml version="1.0" standalone="no"?>
<!DOCTYPE svg PUBLIC "-//W3C//DTD SVG 20010904//EN"
 "http://www.w3.org/TR/2001/REC-SVG-20010904/DTD/svg10.dtd">
<svg version="1.0" xmlns="http://www.w3.org/2000/svg"
 width="512.000000pt" height="512.000000pt" viewBox="0 0 512.000000 512.000000"
 preserveAspectRatio="xMidYMid meet">
<metadata>
Created by potrace 1.11, written by Peter Selinger 2001-2013
</metadata>
<g transform="translate(0.000000,512.000000) scale(0.100000,-0.100000)"
fill="#000000" stroke="none">
<path d="M2045 4810 c-258 -258 -292 -289 -315 -284 -14 4 -61 17 -105 29 -44
13 -147 42 -230 65 -82 22 -179 50 -215 60 -206 60 -572 160 -585 160 -8 0
-138 -123 -289 -274 l-275 -275 177 -109 c154 -95 858 -532 1677 -1040 138
-85 252 -156 253 -158 2 -1 -119 -125 -268 -276 -150 -150 -311 -321 -358
-380 -67 -84 -91 -108 -111 -109 -14 -1 -39 -3 -56 -4 -16 -1 -79 -5 -140 -9
-60 -3 -141 -8 -180 -11 -169 -11 -235 -16 -310 -20 -186 -11 -264 -16 -330
-21 l-70 -4 -153 -153 c-83 -83 -151 -156 -149 -162 2 -5 57 -44 123 -85 65
-42 272 -175 459 -296 l340 -220 150 -150 c154 -154 197 -212 420 -574 28 -45
56 -87 62 -95 7 -7 13 -16 13 -19 0 -3 25 -45 56 -93 32 -48 71 -110 89 -138
18 -27 46 -72 62 -98 l29 -48 157 158 c96 95 157 165 158 177 1 12 2 32 4 46
2 21 12 191 20 325 1 22 6 90 10 150 4 61 8 133 10 160 2 28 6 104 11 170 4
66 8 135 8 153 1 28 9 38 45 63 112 75 246 194 490 436 145 145 267 263 271
263 4 0 12 -10 18 -22 17 -34 305 -500 406 -658 23 -36 136 -217 252 -403 115
-186 217 -350 226 -365 10 -15 21 -34 25 -42 8 -15 373 -601 379 -609 6 -6
554 542 554 554 0 5 -27 104 -59 220 -141 498 -254 902 -259 924 -4 20 38 66
287 315 l291 291 -320 320 -319 319 -27 -24 c-14 -14 -65 -65 -113 -113 l-86
-88 -63 228 c-35 125 -67 238 -72 249 -8 19 18 49 199 231 114 116 234 243
267 284 161 197 291 420 450 769 46 101 47 108 48 200 0 118 -19 165 -101 252
-92 96 -180 136 -288 133 -59 -2 -77 -7 -170 -47 -251 -107 -507 -257 -712
-414 -103 -80 -154 -127 -374 -346 -97 -98 -182 -178 -187 -178 -5 0 -32 7
-58 15 -27 8 -130 38 -229 65 -99 28 -186 53 -193 55 -8 3 31 49 98 116 l112
112 -318 318 c-176 176 -321 319 -324 319 -3 0 -135 -130 -295 -290z"/>
</g>
</svg>
